<!-- Created with Inkscape (http://www.inkscape.org/) -->
<svg version="1.1" viewBox="0 0 256 256" xmlns="http://www.w3.org/2000/svg">
  <g fill="none" stroke="#fff" stroke-linecap="round" stroke-linejoin="round" stroke-width="8">
    <rect x="28" y="28" width="200" height="200" ry="20"/>
  </g>
  <g fill="none" stroke="#fff" stroke-linecap="round" stroke-linejoin="round" stroke-width="10">
    <path d="m141 114c-0.5-4-1-6-3-9-2-3-5-6-7-6-3-1-6-0.6-10 0.6-3 1-5 5-7 9-2 6-0.5 14 3 19 2 3 6 4 10 3 5-0.3 9-3 12-6 2-2 3-6 3-9 0.2 15 0.4 30 0.5 45"/>
  </g>
</svg>
