<!-- Created with Inkscape (http://www.inkscape.org/) -->
<svg version="1.1" viewBox="0 0 256 256" xmlns="http://www.w3.org/2000/svg">
  <g fill="none" stroke="#fff" stroke-linecap="round" stroke-linejoin="round" stroke-width="8">
    <rect x="28" y="28" width="200" height="200" ry="20"/>
  </g>
  <g fill="none" stroke="#fff" stroke-linecap="round" stroke-linejoin="round" stroke-width="10">
    <path d="m132 96c-4 4-8 7-11 12-3 6-7 12-8 19-1 5-1 10-0.3 15 0.6 4 1 6 3 9 1 3 4 4 8 5 5 1 10 3 15 0.4 3-1 6-4 6-6 1-3 1-9-0.1-11-1-3-5-6-8-7-4-0.6-8 6e-3 -12 1-3 1-8 2-9 6"/>
  </g>
</svg>
