<!-- Created with Inkscape (http://www.inkscape.org/) -->
<svg version="1.1" viewBox="0 0 256 256" xmlns="http://www.w3.org/2000/svg">
  <g fill="none" stroke="#fff" stroke-linecap="round" stroke-linejoin="round" stroke-width="8">
    <rect x="28" y="28" width="200" height="200" ry="20"/>
  </g>
  <g fill="none" stroke="#fff" stroke-linecap="round" stroke-linejoin="round" stroke-width="10">
    <path d="m145 105c-3-4-8-6-13-6s-10-0.6-15 1c-3 1-6 4-8 7-1 3-1 6 0.6 8 4 4 10 6 15 8 5 1 10 4 15 6 3 1 6 4 6 7 1 3 1 6 1 9-1 4-3 8-7 10-3 3-8 3-13 2-3-0.3-6-1-8-4-2-2-3-5-3-8 1-6 7-11 11-16 5-5 12-8 17-11 0.6-0.4 1-0.6 2-1"/>
  </g>
</svg>
