<!-- Created with Inkscape (http://www.inkscape.org/) -->
<svg version="1.1" viewBox="0 0 256 256" xmlns="http://www.w3.org/2000/svg">
  <g fill="none" stroke="#fff" stroke-linecap="round" stroke-linejoin="round" stroke-width="8">
    <rect x="28" y="28" width="200" height="200" ry="20"/>
  </g>
  <g fill="none" stroke="#fff" stroke-linecap="round" stroke-linejoin="round" stroke-width="10">
    <path d="m112 146c1 5 6 9 11 9 3 0.1 8-1 11-4 4-3 8-6 10-11 1-5 2-11 2-16-0.3-4-1-9-3-13-1-4-5-8-9-9-3-1-8-1-11 0.06-4 1-8 4-10 7-3 5-4 11-5 17 0 6 2 13 4 19z"/>
  </g>
</svg>
