<!-- Created with Inkscape (http://www.inkscape.org/) -->
<svg version="1.1" viewBox="0 0 256 256" xmlns="http://www.w3.org/2000/svg">
  <g fill="none" stroke="#fff" stroke-linecap="round" stroke-linejoin="round" stroke-width="8">
    <rect x="28" y="28" width="200" height="200" ry="20"/>
  </g>
  <g fill="none" stroke="#fff" stroke-linecap="round" stroke-linejoin="round" stroke-width="10">
    <path d="m116 97c5 0.06 12-0.04 16 2 3 1 6 4 9 8 1 2 1 5 1 8-1 4-6 6-10 9-4 1-8 2-12 3 3-0.3 7-0.4 12 0.6 3 1 7 1 9 4 2 1 3 4 3 7 0.05 4-0.2 6-1 9-2 4-5 6-8 9-6 4-12 3-15 3"/>
  </g>
</svg>
